<mxfile host="app.diagrams.net" modified="2024-06-01T03:30:36.975Z" agent="Mozilla/5.0 (Windows NT 10.0; Win64; x64) AppleWebKit/537.36 (KHTML, like Gecko) Chrome/125.0.0.0 Safari/537.36" etag="_XOhyIqrg_f2LxFsh3-o" version="24.4.13" type="github">
  <diagram id="C5RBs43oDa-KdzZeNtuy" name="Page-1">
    <mxGraphModel dx="5154" dy="1740" grid="1" gridSize="10" guides="1" tooltips="1" connect="1" arrows="1" fold="1" page="1" pageScale="1" pageWidth="827" pageHeight="1169" math="0" shadow="0">
      <root>
        <mxCell id="WIyWlLk6GJQsqaUBKTNV-0" />
        <mxCell id="WIyWlLk6GJQsqaUBKTNV-1" parent="WIyWlLk6GJQsqaUBKTNV-0" />
        <mxCell id="ndCa106eTkyf-9rv-nR3-2" value="" style="edgeStyle=orthogonalEdgeStyle;rounded=0;orthogonalLoop=1;jettySize=auto;html=1;" edge="1" parent="WIyWlLk6GJQsqaUBKTNV-1" source="ndCa106eTkyf-9rv-nR3-0" target="ndCa106eTkyf-9rv-nR3-1">
          <mxGeometry relative="1" as="geometry" />
        </mxCell>
        <mxCell id="ndCa106eTkyf-9rv-nR3-0" value="Start" style="ellipse;whiteSpace=wrap;html=1;" vertex="1" parent="WIyWlLk6GJQsqaUBKTNV-1">
          <mxGeometry x="350" y="90" width="120" height="80" as="geometry" />
        </mxCell>
        <mxCell id="ndCa106eTkyf-9rv-nR3-6" value="" style="edgeStyle=orthogonalEdgeStyle;rounded=0;orthogonalLoop=1;jettySize=auto;html=1;" edge="1" parent="WIyWlLk6GJQsqaUBKTNV-1" source="ndCa106eTkyf-9rv-nR3-1" target="ndCa106eTkyf-9rv-nR3-5">
          <mxGeometry relative="1" as="geometry" />
        </mxCell>
        <mxCell id="ndCa106eTkyf-9rv-nR3-1" value="&lt;p class=&quot;MsoNormal&quot;&gt;computer = (int) (Math.random() * 3);&lt;/p&gt;" style="rounded=0;whiteSpace=wrap;html=1;" vertex="1" parent="WIyWlLk6GJQsqaUBKTNV-1">
          <mxGeometry x="340" y="200" width="140" height="80" as="geometry" />
        </mxCell>
        <mxCell id="ndCa106eTkyf-9rv-nR3-8" value="" style="edgeStyle=orthogonalEdgeStyle;rounded=0;orthogonalLoop=1;jettySize=auto;html=1;" edge="1" parent="WIyWlLk6GJQsqaUBKTNV-1" source="ndCa106eTkyf-9rv-nR3-5" target="ndCa106eTkyf-9rv-nR3-7">
          <mxGeometry relative="1" as="geometry" />
        </mxCell>
        <mxCell id="ndCa106eTkyf-9rv-nR3-5" value="user" style="shape=manualInput;whiteSpace=wrap;html=1;" vertex="1" parent="WIyWlLk6GJQsqaUBKTNV-1">
          <mxGeometry x="370" y="310" width="80" height="80" as="geometry" />
        </mxCell>
        <mxCell id="ndCa106eTkyf-9rv-nR3-10" value="" style="edgeStyle=orthogonalEdgeStyle;rounded=0;orthogonalLoop=1;jettySize=auto;html=1;" edge="1" parent="WIyWlLk6GJQsqaUBKTNV-1" source="ndCa106eTkyf-9rv-nR3-7" target="ndCa106eTkyf-9rv-nR3-9">
          <mxGeometry relative="1" as="geometry" />
        </mxCell>
        <mxCell id="ndCa106eTkyf-9rv-nR3-85" style="edgeStyle=orthogonalEdgeStyle;rounded=0;orthogonalLoop=1;jettySize=auto;html=1;exitX=1;exitY=0.5;exitDx=0;exitDy=0;" edge="1" parent="WIyWlLk6GJQsqaUBKTNV-1" source="ndCa106eTkyf-9rv-nR3-7">
          <mxGeometry relative="1" as="geometry">
            <mxPoint x="690" y="490" as="targetPoint" />
          </mxGeometry>
        </mxCell>
        <mxCell id="ndCa106eTkyf-9rv-nR3-7" value="if user == 0 or 1 or 2" style="rhombus;whiteSpace=wrap;html=1;" vertex="1" parent="WIyWlLk6GJQsqaUBKTNV-1">
          <mxGeometry x="335" y="420" width="150" height="140" as="geometry" />
        </mxCell>
        <mxCell id="ndCa106eTkyf-9rv-nR3-12" value="" style="edgeStyle=orthogonalEdgeStyle;rounded=0;orthogonalLoop=1;jettySize=auto;html=1;" edge="1" parent="WIyWlLk6GJQsqaUBKTNV-1" source="ndCa106eTkyf-9rv-nR3-9" target="ndCa106eTkyf-9rv-nR3-11">
          <mxGeometry relative="1" as="geometry" />
        </mxCell>
        <mxCell id="ndCa106eTkyf-9rv-nR3-25" value="" style="edgeStyle=orthogonalEdgeStyle;rounded=0;orthogonalLoop=1;jettySize=auto;html=1;" edge="1" parent="WIyWlLk6GJQsqaUBKTNV-1" source="ndCa106eTkyf-9rv-nR3-9" target="ndCa106eTkyf-9rv-nR3-24">
          <mxGeometry relative="1" as="geometry" />
        </mxCell>
        <mxCell id="ndCa106eTkyf-9rv-nR3-9" value="if computer != user;" style="rhombus;whiteSpace=wrap;html=1;" vertex="1" parent="WIyWlLk6GJQsqaUBKTNV-1">
          <mxGeometry x="335" y="640" width="150" height="140" as="geometry" />
        </mxCell>
        <mxCell id="ndCa106eTkyf-9rv-nR3-14" value="" style="edgeStyle=orthogonalEdgeStyle;rounded=0;orthogonalLoop=1;jettySize=auto;html=1;" edge="1" parent="WIyWlLk6GJQsqaUBKTNV-1" source="ndCa106eTkyf-9rv-nR3-11" target="ndCa106eTkyf-9rv-nR3-13">
          <mxGeometry relative="1" as="geometry" />
        </mxCell>
        <mxCell id="ndCa106eTkyf-9rv-nR3-23" value="" style="edgeStyle=orthogonalEdgeStyle;rounded=0;orthogonalLoop=1;jettySize=auto;html=1;" edge="1" parent="WIyWlLk6GJQsqaUBKTNV-1" source="ndCa106eTkyf-9rv-nR3-11" target="ndCa106eTkyf-9rv-nR3-17">
          <mxGeometry relative="1" as="geometry" />
        </mxCell>
        <mxCell id="ndCa106eTkyf-9rv-nR3-11" value="if user ==0;" style="rhombus;whiteSpace=wrap;html=1;" vertex="1" parent="WIyWlLk6GJQsqaUBKTNV-1">
          <mxGeometry x="565" y="640" width="150" height="140" as="geometry" />
        </mxCell>
        <mxCell id="ndCa106eTkyf-9rv-nR3-16" value="" style="edgeStyle=orthogonalEdgeStyle;rounded=0;orthogonalLoop=1;jettySize=auto;html=1;" edge="1" parent="WIyWlLk6GJQsqaUBKTNV-1" source="ndCa106eTkyf-9rv-nR3-13" target="ndCa106eTkyf-9rv-nR3-15">
          <mxGeometry relative="1" as="geometry" />
        </mxCell>
        <mxCell id="ndCa106eTkyf-9rv-nR3-22" value="" style="edgeStyle=orthogonalEdgeStyle;rounded=0;orthogonalLoop=1;jettySize=auto;html=1;" edge="1" parent="WIyWlLk6GJQsqaUBKTNV-1" source="ndCa106eTkyf-9rv-nR3-13" target="ndCa106eTkyf-9rv-nR3-19">
          <mxGeometry relative="1" as="geometry" />
        </mxCell>
        <mxCell id="ndCa106eTkyf-9rv-nR3-13" value="if user ==1;" style="rhombus;whiteSpace=wrap;html=1;" vertex="1" parent="WIyWlLk6GJQsqaUBKTNV-1">
          <mxGeometry x="795" y="640" width="150" height="140" as="geometry" />
        </mxCell>
        <mxCell id="ndCa106eTkyf-9rv-nR3-21" value="" style="edgeStyle=orthogonalEdgeStyle;rounded=0;orthogonalLoop=1;jettySize=auto;html=1;" edge="1" parent="WIyWlLk6GJQsqaUBKTNV-1" source="ndCa106eTkyf-9rv-nR3-15" target="ndCa106eTkyf-9rv-nR3-20">
          <mxGeometry relative="1" as="geometry" />
        </mxCell>
        <mxCell id="ndCa106eTkyf-9rv-nR3-15" value="if user ==2;" style="rhombus;whiteSpace=wrap;html=1;" vertex="1" parent="WIyWlLk6GJQsqaUBKTNV-1">
          <mxGeometry x="1000" y="660" width="110" height="100" as="geometry" />
        </mxCell>
        <mxCell id="ndCa106eTkyf-9rv-nR3-75" style="edgeStyle=orthogonalEdgeStyle;rounded=0;orthogonalLoop=1;jettySize=auto;html=1;exitX=0;exitY=0;exitDx=65;exitDy=140;exitPerimeter=0;entryX=1;entryY=0.5;entryDx=0;entryDy=0;" edge="1" parent="WIyWlLk6GJQsqaUBKTNV-1" source="ndCa106eTkyf-9rv-nR3-17" target="ndCa106eTkyf-9rv-nR3-68">
          <mxGeometry relative="1" as="geometry" />
        </mxCell>
        <mxCell id="ndCa106eTkyf-9rv-nR3-17" value="The computer is rock.&amp;nbsp;&lt;div&gt;You are rock.&lt;/div&gt;&lt;div&gt;It is a draw&lt;/div&gt;" style="shape=display;whiteSpace=wrap;html=1;" vertex="1" parent="WIyWlLk6GJQsqaUBKTNV-1">
          <mxGeometry x="560" y="840" width="160" height="140" as="geometry" />
        </mxCell>
        <mxCell id="ndCa106eTkyf-9rv-nR3-76" style="edgeStyle=orthogonalEdgeStyle;rounded=0;orthogonalLoop=1;jettySize=auto;html=1;exitX=0;exitY=0;exitDx=65;exitDy=140;exitPerimeter=0;entryX=1;entryY=0;entryDx=0;entryDy=0;" edge="1" parent="WIyWlLk6GJQsqaUBKTNV-1" source="ndCa106eTkyf-9rv-nR3-19" target="ndCa106eTkyf-9rv-nR3-68">
          <mxGeometry relative="1" as="geometry" />
        </mxCell>
        <mxCell id="ndCa106eTkyf-9rv-nR3-19" value="The computer is rock.&amp;nbsp;&lt;div&gt;You are rock.&lt;/div&gt;&lt;div&gt;It is a draw&lt;/div&gt;" style="shape=display;whiteSpace=wrap;html=1;" vertex="1" parent="WIyWlLk6GJQsqaUBKTNV-1">
          <mxGeometry x="790" y="830" width="160" height="140" as="geometry" />
        </mxCell>
        <mxCell id="ndCa106eTkyf-9rv-nR3-77" style="edgeStyle=orthogonalEdgeStyle;rounded=0;orthogonalLoop=1;jettySize=auto;html=1;exitX=0;exitY=0;exitDx=90;exitDy=140;exitPerimeter=0;entryX=1;entryY=1;entryDx=0;entryDy=0;" edge="1" parent="WIyWlLk6GJQsqaUBKTNV-1" source="ndCa106eTkyf-9rv-nR3-20" target="ndCa106eTkyf-9rv-nR3-68">
          <mxGeometry relative="1" as="geometry">
            <mxPoint x="470" y="1440" as="targetPoint" />
          </mxGeometry>
        </mxCell>
        <mxCell id="ndCa106eTkyf-9rv-nR3-20" value="The computer is rock.&amp;nbsp;&lt;div&gt;You are rock.&lt;/div&gt;&lt;div&gt;It is a draw&lt;/div&gt;" style="shape=display;whiteSpace=wrap;html=1;" vertex="1" parent="WIyWlLk6GJQsqaUBKTNV-1">
          <mxGeometry x="975" y="800" width="160" height="140" as="geometry" />
        </mxCell>
        <mxCell id="ndCa106eTkyf-9rv-nR3-28" value="" style="edgeStyle=orthogonalEdgeStyle;rounded=0;orthogonalLoop=1;jettySize=auto;html=1;" edge="1" parent="WIyWlLk6GJQsqaUBKTNV-1" source="ndCa106eTkyf-9rv-nR3-24" target="ndCa106eTkyf-9rv-nR3-27">
          <mxGeometry relative="1" as="geometry" />
        </mxCell>
        <mxCell id="ndCa106eTkyf-9rv-nR3-50" value="" style="edgeStyle=orthogonalEdgeStyle;rounded=0;orthogonalLoop=1;jettySize=auto;html=1;" edge="1" parent="WIyWlLk6GJQsqaUBKTNV-1" source="ndCa106eTkyf-9rv-nR3-24" target="ndCa106eTkyf-9rv-nR3-45">
          <mxGeometry relative="1" as="geometry" />
        </mxCell>
        <mxCell id="ndCa106eTkyf-9rv-nR3-24" value="if user ==0 and computer ==1" style="rhombus;whiteSpace=wrap;html=1;" vertex="1" parent="WIyWlLk6GJQsqaUBKTNV-1">
          <mxGeometry x="307.5" y="840" width="205" height="150" as="geometry" />
        </mxCell>
        <mxCell id="ndCa106eTkyf-9rv-nR3-30" value="" style="edgeStyle=orthogonalEdgeStyle;rounded=0;orthogonalLoop=1;jettySize=auto;html=1;" edge="1" parent="WIyWlLk6GJQsqaUBKTNV-1" source="ndCa106eTkyf-9rv-nR3-27" target="ndCa106eTkyf-9rv-nR3-29">
          <mxGeometry relative="1" as="geometry" />
        </mxCell>
        <mxCell id="ndCa106eTkyf-9rv-nR3-49" value="" style="edgeStyle=orthogonalEdgeStyle;rounded=0;orthogonalLoop=1;jettySize=auto;html=1;" edge="1" parent="WIyWlLk6GJQsqaUBKTNV-1" source="ndCa106eTkyf-9rv-nR3-27" target="ndCa106eTkyf-9rv-nR3-47">
          <mxGeometry relative="1" as="geometry" />
        </mxCell>
        <mxCell id="ndCa106eTkyf-9rv-nR3-27" value="if user ==0 and computer ==2" style="rhombus;whiteSpace=wrap;html=1;" vertex="1" parent="WIyWlLk6GJQsqaUBKTNV-1">
          <mxGeometry x="22.5" y="840" width="205" height="150" as="geometry" />
        </mxCell>
        <mxCell id="ndCa106eTkyf-9rv-nR3-32" value="" style="edgeStyle=orthogonalEdgeStyle;rounded=0;orthogonalLoop=1;jettySize=auto;html=1;" edge="1" parent="WIyWlLk6GJQsqaUBKTNV-1" source="ndCa106eTkyf-9rv-nR3-29" target="ndCa106eTkyf-9rv-nR3-31">
          <mxGeometry relative="1" as="geometry" />
        </mxCell>
        <mxCell id="ndCa106eTkyf-9rv-nR3-44" value="" style="edgeStyle=orthogonalEdgeStyle;rounded=0;orthogonalLoop=1;jettySize=auto;html=1;" edge="1" parent="WIyWlLk6GJQsqaUBKTNV-1" source="ndCa106eTkyf-9rv-nR3-29" target="ndCa106eTkyf-9rv-nR3-43">
          <mxGeometry relative="1" as="geometry" />
        </mxCell>
        <mxCell id="ndCa106eTkyf-9rv-nR3-29" value="if user==1 and computer ==0" style="rhombus;whiteSpace=wrap;html=1;" vertex="1" parent="WIyWlLk6GJQsqaUBKTNV-1">
          <mxGeometry x="-262.5" y="840" width="205" height="150" as="geometry" />
        </mxCell>
        <mxCell id="ndCa106eTkyf-9rv-nR3-34" value="" style="edgeStyle=orthogonalEdgeStyle;rounded=0;orthogonalLoop=1;jettySize=auto;html=1;" edge="1" parent="WIyWlLk6GJQsqaUBKTNV-1" source="ndCa106eTkyf-9rv-nR3-31" target="ndCa106eTkyf-9rv-nR3-33">
          <mxGeometry relative="1" as="geometry" />
        </mxCell>
        <mxCell id="ndCa106eTkyf-9rv-nR3-42" value="" style="edgeStyle=orthogonalEdgeStyle;rounded=0;orthogonalLoop=1;jettySize=auto;html=1;" edge="1" parent="WIyWlLk6GJQsqaUBKTNV-1" source="ndCa106eTkyf-9rv-nR3-31" target="ndCa106eTkyf-9rv-nR3-41">
          <mxGeometry relative="1" as="geometry" />
        </mxCell>
        <mxCell id="ndCa106eTkyf-9rv-nR3-31" value="if user ==1 and computer ==2" style="rhombus;whiteSpace=wrap;html=1;" vertex="1" parent="WIyWlLk6GJQsqaUBKTNV-1">
          <mxGeometry x="-547.5" y="840" width="205" height="150" as="geometry" />
        </mxCell>
        <mxCell id="ndCa106eTkyf-9rv-nR3-36" value="" style="edgeStyle=orthogonalEdgeStyle;rounded=0;orthogonalLoop=1;jettySize=auto;html=1;" edge="1" parent="WIyWlLk6GJQsqaUBKTNV-1" source="ndCa106eTkyf-9rv-nR3-33" target="ndCa106eTkyf-9rv-nR3-35">
          <mxGeometry relative="1" as="geometry" />
        </mxCell>
        <mxCell id="ndCa106eTkyf-9rv-nR3-40" value="" style="edgeStyle=orthogonalEdgeStyle;rounded=0;orthogonalLoop=1;jettySize=auto;html=1;" edge="1" parent="WIyWlLk6GJQsqaUBKTNV-1" source="ndCa106eTkyf-9rv-nR3-33" target="ndCa106eTkyf-9rv-nR3-39">
          <mxGeometry relative="1" as="geometry" />
        </mxCell>
        <mxCell id="ndCa106eTkyf-9rv-nR3-33" value="if user ==2 and computer ==0" style="rhombus;whiteSpace=wrap;html=1;" vertex="1" parent="WIyWlLk6GJQsqaUBKTNV-1">
          <mxGeometry x="-832.5" y="840" width="205" height="150" as="geometry" />
        </mxCell>
        <mxCell id="ndCa106eTkyf-9rv-nR3-38" value="" style="edgeStyle=orthogonalEdgeStyle;rounded=0;orthogonalLoop=1;jettySize=auto;html=1;" edge="1" parent="WIyWlLk6GJQsqaUBKTNV-1" source="ndCa106eTkyf-9rv-nR3-35" target="ndCa106eTkyf-9rv-nR3-37">
          <mxGeometry relative="1" as="geometry" />
        </mxCell>
        <mxCell id="ndCa106eTkyf-9rv-nR3-35" value="if user ==2 and computer ==1" style="rhombus;whiteSpace=wrap;html=1;" vertex="1" parent="WIyWlLk6GJQsqaUBKTNV-1">
          <mxGeometry x="-1117.5" y="840" width="205" height="150" as="geometry" />
        </mxCell>
        <mxCell id="ndCa106eTkyf-9rv-nR3-37" value="The computer is scissor.&lt;div&gt;&amp;nbsp;You are paper.&amp;nbsp;&lt;div&gt;You lost.&lt;/div&gt;&lt;/div&gt;" style="shape=display;whiteSpace=wrap;html=1;" vertex="1" parent="WIyWlLk6GJQsqaUBKTNV-1">
          <mxGeometry x="-1121.25" y="1040" width="212.5" height="110" as="geometry" />
        </mxCell>
        <mxCell id="ndCa106eTkyf-9rv-nR3-74" style="edgeStyle=orthogonalEdgeStyle;rounded=0;orthogonalLoop=1;jettySize=auto;html=1;exitX=0;exitY=0;exitDx=105.3125;exitDy=110;exitPerimeter=0;" edge="1" parent="WIyWlLk6GJQsqaUBKTNV-1" source="ndCa106eTkyf-9rv-nR3-39">
          <mxGeometry relative="1" as="geometry">
            <mxPoint x="-20" y="1400" as="targetPoint" />
          </mxGeometry>
        </mxCell>
        <mxCell id="ndCa106eTkyf-9rv-nR3-39" value="The computer is rock.&lt;div&gt;You are paper.&lt;/div&gt;&lt;div&gt;You won&lt;/div&gt;" style="shape=display;whiteSpace=wrap;html=1;" vertex="1" parent="WIyWlLk6GJQsqaUBKTNV-1">
          <mxGeometry x="-836.25" y="1050" width="212.5" height="110" as="geometry" />
        </mxCell>
        <mxCell id="ndCa106eTkyf-9rv-nR3-72" style="edgeStyle=orthogonalEdgeStyle;rounded=0;orthogonalLoop=1;jettySize=auto;html=1;exitX=0;exitY=0;exitDx=157.5;exitDy=110;exitPerimeter=0;entryX=0;entryY=0.5;entryDx=0;entryDy=0;" edge="1" parent="WIyWlLk6GJQsqaUBKTNV-1" source="ndCa106eTkyf-9rv-nR3-41" target="ndCa106eTkyf-9rv-nR3-68">
          <mxGeometry relative="1" as="geometry" />
        </mxCell>
        <mxCell id="ndCa106eTkyf-9rv-nR3-41" value="The computer is paper.&lt;div&gt;&amp;nbsp;You are scissor.&amp;nbsp;&lt;div&gt;You won.&lt;/div&gt;&lt;/div&gt;" style="shape=display;whiteSpace=wrap;html=1;" vertex="1" parent="WIyWlLk6GJQsqaUBKTNV-1">
          <mxGeometry x="-551.25" y="1030" width="212.5" height="110" as="geometry" />
        </mxCell>
        <mxCell id="ndCa106eTkyf-9rv-nR3-71" style="edgeStyle=orthogonalEdgeStyle;rounded=0;orthogonalLoop=1;jettySize=auto;html=1;exitX=0;exitY=0;exitDx=105.3125;exitDy=110;exitPerimeter=0;" edge="1" parent="WIyWlLk6GJQsqaUBKTNV-1" source="ndCa106eTkyf-9rv-nR3-43">
          <mxGeometry relative="1" as="geometry">
            <mxPoint x="20" y="1360" as="targetPoint" />
          </mxGeometry>
        </mxCell>
        <mxCell id="ndCa106eTkyf-9rv-nR3-43" value="The computer is rock.&lt;div&gt;You are scissor.&lt;/div&gt;&lt;div&gt;You lost.&lt;/div&gt;" style="shape=display;whiteSpace=wrap;html=1;" vertex="1" parent="WIyWlLk6GJQsqaUBKTNV-1">
          <mxGeometry x="-266.25" y="1030" width="212.5" height="110" as="geometry" />
        </mxCell>
        <mxCell id="ndCa106eTkyf-9rv-nR3-45" value="The computer is scissor.&lt;div&gt;&amp;nbsp;You are rock.&lt;/div&gt;&lt;div&gt;&lt;span style=&quot;background-color: initial;&quot;&gt;You won.&lt;/span&gt;&lt;/div&gt;" style="shape=display;whiteSpace=wrap;html=1;" vertex="1" parent="WIyWlLk6GJQsqaUBKTNV-1">
          <mxGeometry x="303.75" y="1040" width="212.5" height="110" as="geometry" />
        </mxCell>
        <mxCell id="ndCa106eTkyf-9rv-nR3-69" style="edgeStyle=orthogonalEdgeStyle;rounded=0;orthogonalLoop=1;jettySize=auto;html=1;exitX=0;exitY=0;exitDx=105.3125;exitDy=110;exitPerimeter=0;" edge="1" parent="WIyWlLk6GJQsqaUBKTNV-1" source="ndCa106eTkyf-9rv-nR3-47">
          <mxGeometry relative="1" as="geometry">
            <mxPoint x="40" y="1360" as="targetPoint" />
          </mxGeometry>
        </mxCell>
        <mxCell id="ndCa106eTkyf-9rv-nR3-47" value="The computer is paper.&amp;nbsp;&lt;div&gt;You are rock.&lt;/div&gt;&lt;div&gt;You lost.&lt;/div&gt;" style="shape=display;whiteSpace=wrap;html=1;" vertex="1" parent="WIyWlLk6GJQsqaUBKTNV-1">
          <mxGeometry x="18.75" y="1059" width="212.5" height="110" as="geometry" />
        </mxCell>
        <mxCell id="ndCa106eTkyf-9rv-nR3-51" value="true" style="text;html=1;align=center;verticalAlign=middle;whiteSpace=wrap;rounded=0;" vertex="1" parent="WIyWlLk6GJQsqaUBKTNV-1">
          <mxGeometry x="400" y="584.5" width="60" height="30" as="geometry" />
        </mxCell>
        <mxCell id="ndCa106eTkyf-9rv-nR3-52" value="true" style="text;html=1;align=center;verticalAlign=middle;whiteSpace=wrap;rounded=0;" vertex="1" parent="WIyWlLk6GJQsqaUBKTNV-1">
          <mxGeometry x="400" y="584.5" width="60" height="30" as="geometry" />
        </mxCell>
        <mxCell id="ndCa106eTkyf-9rv-nR3-53" value="true" style="text;html=1;align=center;verticalAlign=middle;whiteSpace=wrap;rounded=0;" vertex="1" parent="WIyWlLk6GJQsqaUBKTNV-1">
          <mxGeometry x="400" y="790" width="60" height="30" as="geometry" />
        </mxCell>
        <mxCell id="ndCa106eTkyf-9rv-nR3-54" value="true" style="text;html=1;align=center;verticalAlign=middle;whiteSpace=wrap;rounded=0;" vertex="1" parent="WIyWlLk6GJQsqaUBKTNV-1">
          <mxGeometry x="400" y="990" width="60" height="30" as="geometry" />
        </mxCell>
        <mxCell id="ndCa106eTkyf-9rv-nR3-55" value="true" style="text;html=1;align=center;verticalAlign=middle;whiteSpace=wrap;rounded=0;" vertex="1" parent="WIyWlLk6GJQsqaUBKTNV-1">
          <mxGeometry x="120" y="1000" width="60" height="30" as="geometry" />
        </mxCell>
        <mxCell id="ndCa106eTkyf-9rv-nR3-56" value="true" style="text;html=1;align=center;verticalAlign=middle;whiteSpace=wrap;rounded=0;" vertex="1" parent="WIyWlLk6GJQsqaUBKTNV-1">
          <mxGeometry x="-170" y="990" width="60" height="30" as="geometry" />
        </mxCell>
        <mxCell id="ndCa106eTkyf-9rv-nR3-57" value="true" style="text;html=1;align=center;verticalAlign=middle;whiteSpace=wrap;rounded=0;" vertex="1" parent="WIyWlLk6GJQsqaUBKTNV-1">
          <mxGeometry x="-460" y="990" width="60" height="30" as="geometry" />
        </mxCell>
        <mxCell id="ndCa106eTkyf-9rv-nR3-58" value="true" style="text;html=1;align=center;verticalAlign=middle;whiteSpace=wrap;rounded=0;" vertex="1" parent="WIyWlLk6GJQsqaUBKTNV-1">
          <mxGeometry x="-740" y="1000" width="60" height="30" as="geometry" />
        </mxCell>
        <mxCell id="ndCa106eTkyf-9rv-nR3-59" value="true" style="text;html=1;align=center;verticalAlign=middle;whiteSpace=wrap;rounded=0;" vertex="1" parent="WIyWlLk6GJQsqaUBKTNV-1">
          <mxGeometry x="-1020" y="1000" width="60" height="30" as="geometry" />
        </mxCell>
        <mxCell id="ndCa106eTkyf-9rv-nR3-61" value="false" style="text;html=1;align=center;verticalAlign=middle;whiteSpace=wrap;rounded=0;" vertex="1" parent="WIyWlLk6GJQsqaUBKTNV-1">
          <mxGeometry x="231.25" y="885" width="60" height="30" as="geometry" />
        </mxCell>
        <mxCell id="ndCa106eTkyf-9rv-nR3-62" value="false" style="text;html=1;align=center;verticalAlign=middle;whiteSpace=wrap;rounded=0;" vertex="1" parent="WIyWlLk6GJQsqaUBKTNV-1">
          <mxGeometry x="-41.25" y="885" width="60" height="30" as="geometry" />
        </mxCell>
        <mxCell id="ndCa106eTkyf-9rv-nR3-63" value="false" style="text;html=1;align=center;verticalAlign=middle;whiteSpace=wrap;rounded=0;" vertex="1" parent="WIyWlLk6GJQsqaUBKTNV-1">
          <mxGeometry x="-320" y="890" width="60" height="30" as="geometry" />
        </mxCell>
        <mxCell id="ndCa106eTkyf-9rv-nR3-64" value="false" style="text;html=1;align=center;verticalAlign=middle;whiteSpace=wrap;rounded=0;" vertex="1" parent="WIyWlLk6GJQsqaUBKTNV-1">
          <mxGeometry x="-620" y="890" width="60" height="30" as="geometry" />
        </mxCell>
        <mxCell id="ndCa106eTkyf-9rv-nR3-65" value="false" style="text;html=1;align=center;verticalAlign=middle;whiteSpace=wrap;rounded=0;" vertex="1" parent="WIyWlLk6GJQsqaUBKTNV-1">
          <mxGeometry x="-900" y="890" width="60" height="30" as="geometry" />
        </mxCell>
        <mxCell id="ndCa106eTkyf-9rv-nR3-68" value="END" style="ellipse;whiteSpace=wrap;html=1;" vertex="1" parent="WIyWlLk6GJQsqaUBKTNV-1">
          <mxGeometry x="-10" y="1370" width="120" height="80" as="geometry" />
        </mxCell>
        <mxCell id="ndCa106eTkyf-9rv-nR3-70" style="edgeStyle=orthogonalEdgeStyle;rounded=0;orthogonalLoop=1;jettySize=auto;html=1;exitX=0;exitY=0;exitDx=105.3125;exitDy=110;exitPerimeter=0;entryX=0.575;entryY=-0.031;entryDx=0;entryDy=0;entryPerimeter=0;" edge="1" parent="WIyWlLk6GJQsqaUBKTNV-1" source="ndCa106eTkyf-9rv-nR3-45" target="ndCa106eTkyf-9rv-nR3-68">
          <mxGeometry relative="1" as="geometry" />
        </mxCell>
        <mxCell id="ndCa106eTkyf-9rv-nR3-73" style="edgeStyle=orthogonalEdgeStyle;rounded=0;orthogonalLoop=1;jettySize=auto;html=1;exitX=0;exitY=0;exitDx=53.125;exitDy=110;exitPerimeter=0;entryX=0.027;entryY=0.314;entryDx=0;entryDy=0;entryPerimeter=0;" edge="1" parent="WIyWlLk6GJQsqaUBKTNV-1" source="ndCa106eTkyf-9rv-nR3-37" target="ndCa106eTkyf-9rv-nR3-68">
          <mxGeometry relative="1" as="geometry" />
        </mxCell>
        <mxCell id="ndCa106eTkyf-9rv-nR3-78" value="false" style="text;html=1;align=center;verticalAlign=middle;whiteSpace=wrap;rounded=0;" vertex="1" parent="WIyWlLk6GJQsqaUBKTNV-1">
          <mxGeometry x="490" y="690" width="60" height="30" as="geometry" />
        </mxCell>
        <mxCell id="ndCa106eTkyf-9rv-nR3-79" value="false" style="text;html=1;align=center;verticalAlign=middle;whiteSpace=wrap;rounded=0;" vertex="1" parent="WIyWlLk6GJQsqaUBKTNV-1">
          <mxGeometry x="730" y="700" width="60" height="30" as="geometry" />
        </mxCell>
        <mxCell id="ndCa106eTkyf-9rv-nR3-80" value="false" style="text;html=1;align=center;verticalAlign=middle;whiteSpace=wrap;rounded=0;" vertex="1" parent="WIyWlLk6GJQsqaUBKTNV-1">
          <mxGeometry x="930" y="680" width="60" height="30" as="geometry" />
        </mxCell>
        <mxCell id="ndCa106eTkyf-9rv-nR3-81" value="true" style="text;html=1;align=center;verticalAlign=middle;whiteSpace=wrap;rounded=0;" vertex="1" parent="WIyWlLk6GJQsqaUBKTNV-1">
          <mxGeometry x="630" y="790" width="60" height="30" as="geometry" />
        </mxCell>
        <mxCell id="ndCa106eTkyf-9rv-nR3-82" value="true" style="text;html=1;align=center;verticalAlign=middle;whiteSpace=wrap;rounded=0;" vertex="1" parent="WIyWlLk6GJQsqaUBKTNV-1">
          <mxGeometry x="860" y="790" width="60" height="30" as="geometry" />
        </mxCell>
        <mxCell id="ndCa106eTkyf-9rv-nR3-83" value="true" style="text;html=1;align=center;verticalAlign=middle;whiteSpace=wrap;rounded=0;" vertex="1" parent="WIyWlLk6GJQsqaUBKTNV-1">
          <mxGeometry x="1040" y="760" width="60" height="30" as="geometry" />
        </mxCell>
        <mxCell id="ndCa106eTkyf-9rv-nR3-84" value="&quot;INVALID INPUT&quot;" style="shape=display;whiteSpace=wrap;html=1;" vertex="1" parent="WIyWlLk6GJQsqaUBKTNV-1">
          <mxGeometry x="690" y="470" width="80" height="40" as="geometry" />
        </mxCell>
        <mxCell id="ndCa106eTkyf-9rv-nR3-86" style="edgeStyle=orthogonalEdgeStyle;rounded=0;orthogonalLoop=1;jettySize=auto;html=1;exitX=1;exitY=0.5;exitDx=0;exitDy=0;exitPerimeter=0;entryX=1.005;entryY=0.647;entryDx=0;entryDy=0;entryPerimeter=0;" edge="1" parent="WIyWlLk6GJQsqaUBKTNV-1" source="ndCa106eTkyf-9rv-nR3-84" target="ndCa106eTkyf-9rv-nR3-68">
          <mxGeometry relative="1" as="geometry" />
        </mxCell>
      </root>
    </mxGraphModel>
  </diagram>
</mxfile>
